<svg width="24" height="22" viewBox="0 0 24 22" fill="none" xmlns="http://www.w3.org/2000/svg">
<path d="M19.4625 21.7055H4.79584C3.7017 21.7055 2.81152 20.8096 2.81152 19.7083V10.2002C2.81152 9.81657 3.12052 9.50552 3.50172 9.50552C3.88292 9.50552 4.19192 8.81657 4.19192 9.20022V19.7083C4.19192 20.0435 4.46282 20.3161 4.79584 20.3161H19.4625C19.7955 20.3161 20.0664 20.0435 20.0664 19.7083V9.20022C20.0664 8.81657 20.3754 9.50552 20.7566 9.50552C21.1378 9.50552 21.4468 9.81657 21.4468 10.2002V19.7083C21.4468 20.8095 20.5567 21.7055 19.4625 21.7055Z" fill="black" fill-opacity="0.6" stroke="black" stroke-opacity="0.6" stroke-width="0.2"/>
<path d="M22.3125 11.6117C22.1366 11.6117 21.9606 11.5449 21.8264 11.4111L13.2761 2.8946C12.5725 2.19372 11.4276 2.19372 10.7239 2.8946L2.17364 11.4112C1.90517 11.6786 1.46985 11.6786 1.20138 11.4112C0.932872 11.1438 0.932872 10.7102 1.20138 10.4428L9.75166 1.92614C10.9914 0.691288 13.0086 0.691288 14.2483 1.92614L22.7986 10.4427C23.0671 10.7102 23.0671 11.1437 22.7986 11.4111C22.6644 11.5449 22.4885 11.6117 22.3125 11.6117V11.6117Z" fill="black" fill-opacity="0.6" stroke="black" stroke-opacity="0.6" stroke-width="0.2"/>
<path fill-rule="evenodd" clip-rule="evenodd" d="M9.20468 21.7063H14.7953C15.1812 21.7063 15.4941 21.3943 15.4941 21.0095V14.8251C15.4941 13.6243 14.5144 12.6475 13.3103 12.6475H10.6897C9.48552 12.6475 8.50586 13.6243 8.50586 14.8251V21.0095C8.50586 21.3943 8.81871 21.7063 9.20468 21.7063ZM14.0963 20.3125H9.90332V14.825C9.90332 14.3927 10.256 14.041 10.6895 14.041H13.3101C13.7436 14.041 14.0963 14.3927 14.0963 14.825V20.3125Z" fill="black" fill-opacity="0.6"/>
<path d="M9.90332 20.3125H9.80332V20.4125H9.90332V20.3125ZM14.0963 20.3125V20.4125H14.1963V20.3125H14.0963ZM14.7953 21.6063H9.20468V21.8063H14.7953V21.6063ZM15.3941 21.0095C15.3941 21.3388 15.1263 21.6063 14.7953 21.6063V21.8063C15.2362 21.8063 15.5941 21.4498 15.5941 21.0095H15.3941ZM15.3941 14.8251V21.0095H15.5941V14.8251H15.3941ZM13.3103 12.7475C14.4595 12.7475 15.3941 13.6798 15.3941 14.8251H15.5941C15.5941 13.5688 14.5694 12.5475 13.3103 12.5475V12.7475ZM10.6897 12.7475H13.3103V12.5475H10.6897V12.7475ZM8.60586 14.8251C8.60586 13.6798 9.54048 12.7475 10.6897 12.7475V12.5475C9.43056 12.5475 8.40586 13.5688 8.40586 14.8251H8.60586ZM8.60586 21.0095V14.8251H8.40586V21.0095H8.60586ZM9.20468 21.6063C8.87368 21.6063 8.60586 21.3388 8.60586 21.0095H8.40586C8.40586 21.4498 8.76375 21.8063 9.20468 21.8063V21.6063ZM9.90332 20.4125H14.0963V20.2125H9.90332V20.4125ZM9.80332 14.825V20.3125H10.0033V14.825H9.80332ZM10.6895 13.941C10.201 13.941 9.80332 14.3372 9.80332 14.825H10.0033C10.0033 14.4482 10.311 14.141 10.6895 14.141V13.941ZM13.3101 13.941H10.6895V14.141H13.3101V13.941ZM14.1963 14.825C14.1963 14.3372 13.7985 13.941 13.3101 13.941V14.141C13.6886 14.141 13.9963 14.4482 13.9963 14.825H14.1963ZM14.1963 20.3125V14.825H13.9963V20.3125H14.1963Z" fill="black" fill-opacity="0.6"/>
</svg>
