<svg width="27" height="17" viewBox="0 0 27 17" fill="none" xmlns="http://www.w3.org/2000/svg">
<path fill-rule="evenodd" clip-rule="evenodd" d="M23.2826 3.26087H24.3696C25.2685 3.26087 26 3.99239 26 4.8913V11.413C26 12.312 25.2685 13.0435 24.3696 13.0435H23.2826C23.0913 13.0435 22.9098 13.0043 22.7391 12.9435V14.6739C22.7391 15.5728 22.0076 16.3043 21.1087 16.3043H20.0217C19.1228 16.3043 18.3913 15.5728 18.3913 14.6739V10.8696H8.6087V14.6739C8.6087 15.5728 7.87717 16.3043 6.97826 16.3043H5.8913C4.99239 16.3043 4.26087 15.5728 4.26087 14.6739V12.9435C4.09022 13.0043 3.9087 13.0435 3.71739 13.0435H2.63043C1.73152 13.0435 1 12.312 1 11.413V4.8913C1 3.99239 1.73152 3.26087 2.63043 3.26087H3.71739C3.9087 3.26087 4.09022 3.3 4.26087 3.36087V1.63043C4.26087 0.731522 4.99239 0 5.8913 0H6.97826C7.87717 0 8.6087 0.731522 8.6087 1.63043V5.43478H18.3913V1.63043C18.3913 0.731522 19.1228 0 20.0217 0H21.1087C22.0076 0 22.7391 0.731522 22.7391 1.63043V3.36087C22.9098 3.3 23.0913 3.26087 23.2826 3.26087ZM3.71739 11.9565C4.01685 11.9565 4.26087 11.7125 4.26087 11.413V4.8913C4.26087 4.59185 4.01685 4.34783 3.71739 4.34783H2.63043C2.33098 4.34783 2.08696 4.59185 2.08696 4.8913V11.413C2.08696 11.7125 2.33098 11.9565 2.63043 11.9565H3.71739ZM7.52174 14.6739C7.52174 14.9734 7.27772 15.2174 6.97826 15.2174H5.8913C5.59185 15.2174 5.34783 14.9734 5.34783 14.6739V11.413V4.8913V1.63043C5.34783 1.33098 5.59185 1.08696 5.8913 1.08696H6.97826C7.27772 1.08696 7.52174 1.33098 7.52174 1.63043V14.6739ZM8.6087 9.78261H18.3913V6.52174H8.6087V9.78261ZM21.6522 4.8913V11.413V14.6739C21.6522 14.9734 21.4082 15.2174 21.1087 15.2174H20.0217C19.7223 15.2174 19.4783 14.9734 19.4783 14.6739V1.63043C19.4783 1.33098 19.7223 1.08696 20.0217 1.08696H21.1087C21.4082 1.08696 21.6522 1.33098 21.6522 1.63043V4.8913ZM24.3696 11.9565C24.669 11.9565 24.913 11.7125 24.913 11.413V4.8913C24.913 4.59185 24.669 4.34783 24.3696 4.34783H23.2826C22.9832 4.34783 22.7391 4.59185 22.7391 4.8913V11.413C22.7391 11.7125 22.9832 11.9565 23.2826 11.9565H24.3696Z" fill="black" fill-opacity="0.6"/>
<path d="M22.7391 12.9435L22.7895 12.8022L22.5891 12.7307V12.9435H22.7391ZM18.3913 10.8696H18.5413V10.7196H18.3913V10.8696ZM8.6087 10.8696V10.7196H8.4587V10.8696H8.6087ZM4.26087 12.9435H4.41087V12.7307L4.21048 12.8022L4.26087 12.9435ZM4.26087 3.36087L4.21048 3.50215L4.41087 3.57363V3.36087H4.26087ZM8.6087 5.43478H8.4587V5.58478H8.6087V5.43478ZM18.3913 5.43478V5.58478H18.5413V5.43478H18.3913ZM22.7391 3.36087H22.5891V3.57363L22.7895 3.50215L22.7391 3.36087ZM18.3913 9.78261V9.93261H18.5413V9.78261H18.3913ZM8.6087 9.78261H8.4587V9.93261H8.6087V9.78261ZM18.3913 6.52174H18.5413V6.37174H18.3913V6.52174ZM8.6087 6.52174V6.37174H8.4587V6.52174H8.6087ZM24.3696 3.11087H23.2826V3.41087H24.3696V3.11087ZM26.15 4.8913C26.15 3.90955 25.3513 3.11087 24.3696 3.11087V3.41087C25.1856 3.41087 25.85 4.07523 25.85 4.8913H26.15ZM26.15 11.413V4.8913H25.85V11.413H26.15ZM24.3696 13.1935C25.3513 13.1935 26.15 12.3948 26.15 11.413H25.85C25.85 12.2291 25.1856 12.8935 24.3696 12.8935V13.1935ZM23.2826 13.1935H24.3696V12.8935H23.2826V13.1935ZM22.6887 13.0848C22.8719 13.1501 23.0706 13.1935 23.2826 13.1935V12.8935C23.112 12.8935 22.9477 12.8586 22.7895 12.8022L22.6887 13.0848ZM22.8891 14.6739V12.9435H22.5891V14.6739H22.8891ZM21.1087 16.4543C22.0905 16.4543 22.8891 15.6557 22.8891 14.6739H22.5891C22.5891 15.49 21.9248 16.1543 21.1087 16.1543V16.4543ZM20.0217 16.4543H21.1087V16.1543H20.0217V16.4543ZM18.2413 14.6739C18.2413 15.6557 19.04 16.4543 20.0217 16.4543V16.1543C19.2057 16.1543 18.5413 15.49 18.5413 14.6739H18.2413ZM18.2413 10.8696V14.6739H18.5413V10.8696H18.2413ZM8.6087 11.0196H18.3913V10.7196H8.6087V11.0196ZM8.7587 14.6739V10.8696H8.4587V14.6739H8.7587ZM6.97826 16.4543C7.96002 16.4543 8.7587 15.6557 8.7587 14.6739H8.4587C8.4587 15.49 7.79433 16.1543 6.97826 16.1543V16.4543ZM5.8913 16.4543H6.97826V16.1543H5.8913V16.4543ZM4.11087 14.6739C4.11087 15.6557 4.90955 16.4543 5.8913 16.4543V16.1543C5.07523 16.1543 4.41087 15.49 4.41087 14.6739H4.11087ZM4.11087 12.9435V14.6739H4.41087V12.9435H4.11087ZM3.71739 13.1935C3.92938 13.1935 4.12812 13.1501 4.31126 13.0848L4.21048 12.8022C4.05232 12.8586 3.88801 12.8935 3.71739 12.8935V13.1935ZM2.63043 13.1935H3.71739V12.8935H2.63043V13.1935ZM0.85 11.413C0.85 12.3948 1.64868 13.1935 2.63043 13.1935V12.8935C1.81436 12.8935 1.15 12.2291 1.15 11.413H0.85ZM0.85 4.8913V11.413H1.15V4.8913H0.85ZM2.63043 3.11087C1.64868 3.11087 0.85 3.90955 0.85 4.8913H1.15C1.15 4.07523 1.81436 3.41087 2.63043 3.41087V3.11087ZM3.71739 3.11087H2.63043V3.41087H3.71739V3.11087ZM4.31126 3.21959C4.12812 3.15426 3.92938 3.11087 3.71739 3.11087V3.41087C3.88801 3.41087 4.05232 3.44574 4.21048 3.50215L4.31126 3.21959ZM4.11087 1.63043V3.36087H4.41087V1.63043H4.11087ZM5.8913 -0.15C4.90955 -0.15 4.11087 0.648679 4.11087 1.63043H4.41087C4.41087 0.814364 5.07523 0.15 5.8913 0.15V-0.15ZM6.97826 -0.15H5.8913V0.15H6.97826V-0.15ZM8.7587 1.63043C8.7587 0.648679 7.96002 -0.15 6.97826 -0.15V0.15C7.79433 0.15 8.4587 0.814364 8.4587 1.63043H8.7587ZM8.7587 5.43478V1.63043H8.4587V5.43478H8.7587ZM18.3913 5.28478H8.6087V5.58478H18.3913V5.28478ZM18.2413 1.63043V5.43478H18.5413V1.63043H18.2413ZM20.0217 -0.15C19.04 -0.15 18.2413 0.648679 18.2413 1.63043H18.5413C18.5413 0.814365 19.2057 0.15 20.0217 0.15V-0.15ZM21.1087 -0.15H20.0217V0.15H21.1087V-0.15ZM22.8891 1.63043C22.8891 0.648679 22.0905 -0.15 21.1087 -0.15V0.15C21.9248 0.15 22.5891 0.814364 22.5891 1.63043H22.8891ZM22.8891 3.36087V1.63043H22.5891V3.36087H22.8891ZM23.2826 3.11087C23.0706 3.11087 22.8719 3.15426 22.6887 3.21959L22.7895 3.50215C22.9477 3.44574 23.112 3.41087 23.2826 3.41087V3.11087ZM4.11087 11.413C4.11087 11.6297 3.93401 11.8065 3.71739 11.8065V12.1065C4.09969 12.1065 4.41087 11.7953 4.41087 11.413H4.11087ZM4.11087 4.8913V11.413H4.41087V4.8913H4.11087ZM3.71739 4.49783C3.93401 4.49783 4.11087 4.67469 4.11087 4.8913H4.41087C4.41087 4.50901 4.09969 4.19783 3.71739 4.19783V4.49783ZM2.63043 4.49783H3.71739V4.19783H2.63043V4.49783ZM2.23696 4.8913C2.23696 4.67469 2.41382 4.49783 2.63043 4.49783V4.19783C2.24814 4.19783 1.93696 4.50901 1.93696 4.8913H2.23696ZM2.23696 11.413V4.8913H1.93696V11.413H2.23696ZM2.63043 11.8065C2.41382 11.8065 2.23696 11.6297 2.23696 11.413H1.93696C1.93696 11.7953 2.24814 12.1065 2.63043 12.1065V11.8065ZM3.71739 11.8065H2.63043V12.1065H3.71739V11.8065ZM6.97826 15.3674C7.36056 15.3674 7.67174 15.0562 7.67174 14.6739H7.37174C7.37174 14.8905 7.19487 15.0674 6.97826 15.0674V15.3674ZM5.8913 15.3674H6.97826V15.0674H5.8913V15.3674ZM5.19783 14.6739C5.19783 15.0562 5.50901 15.3674 5.8913 15.3674V15.0674C5.67469 15.0674 5.49783 14.8905 5.49783 14.6739H5.19783ZM5.19783 11.413V14.6739H5.49783V11.413H5.19783ZM5.19783 4.8913V11.413H5.49783V4.8913H5.19783ZM5.19783 1.63043V4.8913H5.49783V1.63043H5.19783ZM5.8913 0.936957C5.50901 0.936957 5.19783 1.24814 5.19783 1.63043H5.49783C5.49783 1.41382 5.67469 1.23696 5.8913 1.23696V0.936957ZM6.97826 0.936957H5.8913V1.23696H6.97826V0.936957ZM7.67174 1.63043C7.67174 1.24814 7.36056 0.936957 6.97826 0.936957V1.23696C7.19487 1.23696 7.37174 1.41382 7.37174 1.63043H7.67174ZM7.67174 14.6739V1.63043H7.37174V14.6739H7.67174ZM18.3913 9.63261H8.6087V9.93261H18.3913V9.63261ZM18.2413 6.52174V9.78261H18.5413V6.52174H18.2413ZM8.6087 6.67174H18.3913V6.37174H8.6087V6.67174ZM8.7587 9.78261V6.52174H8.4587V9.78261H8.7587ZM21.8022 11.413V4.8913H21.5022V11.413H21.8022ZM21.8022 14.6739V11.413H21.5022V14.6739H21.8022ZM21.1087 15.3674C21.491 15.3674 21.8022 15.0562 21.8022 14.6739H21.5022C21.5022 14.8905 21.3253 15.0674 21.1087 15.0674V15.3674ZM20.0217 15.3674H21.1087V15.0674H20.0217V15.3674ZM19.3283 14.6739C19.3283 15.0562 19.6394 15.3674 20.0217 15.3674V15.0674C19.8051 15.0674 19.6283 14.8905 19.6283 14.6739H19.3283ZM19.3283 1.63043V14.6739H19.6283V1.63043H19.3283ZM20.0217 0.936957C19.6394 0.936957 19.3283 1.24814 19.3283 1.63043H19.6283C19.6283 1.41382 19.8051 1.23696 20.0217 1.23696V0.936957ZM21.1087 0.936957H20.0217V1.23696H21.1087V0.936957ZM21.8022 1.63043C21.8022 1.24814 21.491 0.936957 21.1087 0.936957V1.23696C21.3253 1.23696 21.5022 1.41382 21.5022 1.63043H21.8022ZM21.8022 4.8913V1.63043H21.5022V4.8913H21.8022ZM24.763 11.413C24.763 11.6297 24.5862 11.8065 24.3696 11.8065V12.1065C24.7519 12.1065 25.063 11.7953 25.063 11.413H24.763ZM24.763 4.8913V11.413H25.063V4.8913H24.763ZM24.3696 4.49783C24.5862 4.49783 24.763 4.67469 24.763 4.8913H25.063C25.063 4.509 24.7519 4.19783 24.3696 4.19783V4.49783ZM23.2826 4.49783H24.3696V4.19783H23.2826V4.49783ZM22.8891 4.8913C22.8891 4.67469 23.066 4.49783 23.2826 4.49783V4.19783C22.9003 4.19783 22.5891 4.50901 22.5891 4.8913H22.8891ZM22.8891 11.413V4.8913H22.5891V11.413H22.8891ZM23.2826 11.8065C23.066 11.8065 22.8891 11.6297 22.8891 11.413H22.5891C22.5891 11.7953 22.9003 12.1065 23.2826 12.1065V11.8065ZM24.3696 11.8065H23.2826V12.1065H24.3696V11.8065Z" fill="black" fill-opacity="0.6"/>
</svg>
